<?xml version="1.0" encoding="UTF-8"?>
<svg id="Layer_1" data-name="Layer 1" xmlns="http://www.w3.org/2000/svg" xmlns:xlink="http://www.w3.org/1999/xlink" viewBox="0 0 960 960">
  <defs>
    <style>
      .cls-1, .cls-2 {
        fill: #202124;
      }

      .cls-1, .cls-3, .cls-4 {
        fill-rule: evenodd;
      }

      .cls-5 {
        fill: #4faf53;
      }

      .cls-6 {
        fill: #fff;
      }

      .cls-7 {
        fill: #8bd8a0;
      }

      .cls-8 {
        opacity: .5;
      }

      .cls-9 {
        fill: #0d652d;
      }

      .cls-10 {
        fill: url(#linear-gradient-3);
      }

      .cls-10, .cls-11, .cls-12 {
        fill-opacity: .4;
      }

      .cls-13 {
        mask: url(#mask-2);
      }

      .cls-14 {
        opacity: .8;
      }

      .cls-15 {
        fill: url(#radial-gradient);
      }

      .cls-15, .cls-16, .cls-17, .cls-18, .cls-19 {
        isolation: isolate;
      }

      .cls-15, .cls-17, .cls-18, .cls-19 {
        fill-opacity: .9;
      }

      .cls-15, .cls-19 {
        opacity: .15;
      }

      .cls-20 {
        mask: url(#mask-3);
      }

      .cls-21 {
        fill: #044fcb;
      }

      .cls-22 {
        opacity: .09;
      }

      .cls-23 {
        fill: url(#linear-gradient-11);
      }

      .cls-11 {
        fill: url(#linear-gradient-7);
      }

      .cls-24 {
        opacity: .7;
      }

      .cls-25 {
        fill: url(#linear-gradient-10);
      }

      .cls-26 {
        fill: #4386f5;
      }

      .cls-27, .cls-17, .cls-18 {
        opacity: .3;
      }

      .cls-28 {
        fill: url(#radial-gradient-3);
      }

      .cls-28, .cls-29 {
        fill-opacity: .7;
      }

      .cls-30 {
        fill: #4285f4;
      }

      .cls-31 {
        opacity: .6;
      }

      .cls-16, .cls-32 {
        opacity: .2;
      }

      .cls-33 {
        fill: #034eca;
      }

      .cls-17 {
        fill: url(#radial-gradient-5);
      }

      .cls-18 {
        fill: url(#radial-gradient-6);
      }

      .cls-34 {
        fill: #e2dce1;
      }

      .cls-35 {
        mask: url(#mask-4);
      }

      .cls-36 {
        fill: url(#linear-gradient-5);
      }

      .cls-37 {
        clip-path: url(#clippath);
      }

      .cls-38 {
        fill: none;
      }

      .cls-39 {
        opacity: .1;
      }

      .cls-29 {
        fill: url(#radial-gradient-4);
      }

      .cls-40 {
        fill: url(#linear-gradient-9);
      }

      .cls-41 {
        fill: #011b04;
      }

      .cls-12 {
        fill: url(#linear-gradient-6);
      }

      .cls-42 {
        mask: url(#mask-1);
      }

      .cls-43 {
        mask: url(#mask);
      }

      .cls-44 {
        fill: url(#linear-gradient);
      }

      .cls-45 {
        fill: #81c995;
      }

      .cls-3 {
        fill: url(#linear-gradient-8);
      }

      .cls-46 {
        fill: url(#linear-gradient-4);
      }

      .cls-47 {
        fill: url(#linear-gradient-2);
        fill-opacity: .3;
      }

      .cls-19 {
        fill: url(#radial-gradient-2);
      }

      .cls-48 {
        fill: url(#linear-gradient-12);
      }

      .cls-49 {
        fill: url(#linear-gradient-13);
      }

      .cls-50 {
        fill: rgba(216, 216, 216, .29);
      }
    </style>
    <clipPath id="clippath">
      <rect class="cls-38" x="187.76" y="36.77" width="601.98" height="601.98" rx="23.52" ry="23.52"/>
    </clipPath>
    <linearGradient id="linear-gradient" x1="626.96" y1="455.46" x2="607.61" y2="466.43" gradientTransform="translate(0 962) scale(1 -1)" gradientUnits="userSpaceOnUse">
      <stop offset="0" stop-color="#4285f4"/>
      <stop offset="1" stop-color="#034eca"/>
    </linearGradient>
    <mask id="mask" x="539.67" y="249.9" width="133.41" height="160.7" maskUnits="userSpaceOnUse">
      <g id="c">
        <path class="cls-6" d="m609.63,395.69c6.65-4.34,12.4-9.91,16.96-16.41,4.77-6.78,8.16-14.44,9.95-22.53l.13.02,7.42,1.4c4.15.78,8.29,1.56,12.44,2.34,1.77.32,3.58-.2,4.92-1.4,2.13-1.92,2.51-5.12.87-7.47-.85-1.25-2.17-2.12-3.66-2.4-1.74-.33-3.47-.65-5.21-.97l-7.23-1.36-7.42-1.4-.8-.14.02-.62c.18-7.63-1.03-15.23-3.58-22.42l-.22-.6c-2.59-7.13-6.46-13.73-11.41-19.47.17-.2.33-.4.5-.58l4.9-5.74,4.78-5.6,3.43-4.02c.98-1.16,1.47-2.66,1.35-4.17-.06-.66-.22-1.3-.49-1.91-.99-2.21-3.27-3.55-5.69-3.35-1.52.12-2.92.83-3.91,1.99l-3.43,4.02-4.78,5.61-4.9,5.73-.05.05c-10.64-8.51-23.74-13.36-37.35-13.82-5.49-.17-10.98.38-16.33,1.64l41.58,117.68c2.48-1.2,4.91-2.55,7.22-4.05Z"/>
      </g>
    </mask>
    <linearGradient id="linear-gradient-2" x1="593.14" y1="673.46" x2="587.01" y2="651.73" gradientTransform="translate(0 962) scale(1 -1)" gradientUnits="userSpaceOnUse">
      <stop offset="0" stop-color="#a8f0b9"/>
      <stop offset="1" stop-color="#adeebc" stop-opacity="0"/>
    </linearGradient>
    <linearGradient id="linear-gradient-3" x1="623.47" y1="587.47" x2="605.06" y2="600.53" xlink:href="#linear-gradient-2"/>
    <radialGradient id="radial-gradient" cx="-1207.36" cy="-26.15" fx="-1207.36" fy="-26.15" r="10.03" gradientTransform="translate(301.78 -161.4) rotate(-126.1) scale(.46 -.33)" gradientUnits="userSpaceOnUse">
      <stop offset="0" stop-color="#fff"/>
      <stop offset=".95" stop-color="#fff" stop-opacity="0"/>
    </radialGradient>
    <radialGradient id="radial-gradient-2" cx="-1358.92" cy="33.7" fx="-1358.92" fy="33.7" r="10.03" gradientTransform="translate(304.51 -153.94) rotate(-126.1) scale(.46 -.33)" xlink:href="#radial-gradient"/>
    <mask id="mask-1" x="635.31" y="342.93" width="9.83" height="26.38" maskUnits="userSpaceOnUse">
      <g id="p">
        <path d="m636.09,357.51c.75-3.41,1.49-10.83,1.77-14.11l7.29-.47-.9,20.91c-3.03-.69-8.91-2.93-8.16-6.33Z"/>
      </g>
    </mask>
    <mask id="mask-2" x="604.99" y="283.28" width="24.16" height="19.74" maskUnits="userSpaceOnUse">
      <g id="s">
        <path d="m612.84,293.37c2.76,2.11,8.11,7.32,10.43,9.65l5.87-4.32-14.15-15.42c-1.87,2.48-4.93,7.97-2.16,10.09Z"/>
      </g>
    </mask>
    <radialGradient id="radial-gradient-3" cx="-3496.64" cy="1056.72" fx="-3496.64" fy="1056.72" r="10.03" gradientTransform="translate(167.46 -256.46) rotate(-156.21) scale(.18 -.32)" gradientUnits="userSpaceOnUse">
      <stop offset="0" stop-color="#93e19f"/>
      <stop offset="1" stop-color="#93e19f" stop-opacity="0"/>
    </radialGradient>
    <radialGradient id="radial-gradient-4" cx="144.84" cy="2992.3" fx="144.84" fy="2992.3" r="10.04" gradientTransform="translate(-232.36 -109.88) rotate(117.33) scale(.18 -.32)" xlink:href="#radial-gradient-3"/>
    <mask id="mask-3" x="584.33" y="298.17" width="15.2" height="12.81" maskUnits="userSpaceOnUse">
      <g id="D">
        <path class="cls-2" d="m590.41,310.69c4.11,1.04,8.13-.81,8.97-4.14s-1.81-6.87-5.92-7.92c-4.11-1.03-8.13.82-8.97,4.15-.84,3.33,1.81,6.87,5.92,7.91Z"/>
      </g>
    </mask>
    <linearGradient id="linear-gradient-4" x1="601.01" y1="657.53" x2="595.89" y2="655.46" gradientTransform="translate(0 962) scale(1 -1)" gradientUnits="userSpaceOnUse">
      <stop offset="0" stop-color="#e2dde2"/>
      <stop offset="1" stop-color="#e2dde2" stop-opacity="0"/>
    </linearGradient>
    <mask id="mask-4" x="605.53" y="355.37" width="13.57" height="14.62" maskUnits="userSpaceOnUse">
      <g id="H">
        <path class="cls-2" d="m607.34,358.82c2.55-3.39,6.84-4.46,9.59-2.4,2.75,2.07,2.91,6.48.36,9.86-2.55,3.39-6.84,4.46-9.59,2.41-2.75-2.07-2.91-6.49-.36-9.87Z"/>
      </g>
    </mask>
    <linearGradient id="linear-gradient-5" x1="618.06" y1="602.18" x2="613.76" y2="600.67" gradientTransform="translate(0 962) scale(1 -1)" gradientUnits="userSpaceOnUse">
      <stop offset="0" stop-color="#373637"/>
      <stop offset="1" stop-color="#373637" stop-opacity="0"/>
    </linearGradient>
    <linearGradient id="linear-gradient-6" x1="630.87" y1="638.47" x2="609.58" y2="630.96" xlink:href="#linear-gradient-2"/>
    <linearGradient id="linear-gradient-7" x1="630.87" y1="638.47" x2="609.58" y2="630.96" xlink:href="#linear-gradient-2"/>
    <linearGradient id="linear-gradient-8" x1="467.87" y1="592.37" x2="560.94" y2="599.72" gradientTransform="translate(0 962) scale(1 -1)" gradientUnits="userSpaceOnUse">
      <stop offset="0" stop-color="#4285f4"/>
      <stop offset=".7" stop-color="#044fcb"/>
    </linearGradient>
    <linearGradient id="linear-gradient-9" x1="356.3" y1="457.82" x2="376.37" y2="469.66" xlink:href="#linear-gradient"/>
    <linearGradient id="linear-gradient-10" x1="447.78" y1="591.95" x2="437.08" y2="595.66" gradientTransform="translate(0 962) scale(1 -1)" gradientUnits="userSpaceOnUse">
      <stop offset="0" stop-color="#73a7ff"/>
      <stop offset="1" stop-color="#5893f6" stop-opacity="0"/>
    </linearGradient>
    <linearGradient id="linear-gradient-11" x1="481.45" y1="802.08" x2="498.26" y2="786.95" xlink:href="#linear-gradient"/>
    <linearGradient id="linear-gradient-12" x1="507.34" y1="711.49" x2="558.2" y2="605.2" gradientTransform="translate(0 962) scale(1 -1)" gradientUnits="userSpaceOnUse">
      <stop offset="0" stop-color="#034dc9"/>
      <stop offset="1" stop-color="#4285f4"/>
    </linearGradient>
    <linearGradient id="linear-gradient-13" x1="387.77" y1="632.12" x2="414.55" y2="622.92" gradientTransform="translate(0 962) scale(1 -1)" gradientUnits="userSpaceOnUse">
      <stop offset="0" stop-color="#9bc0ff"/>
      <stop offset="1" stop-color="#5893f6" stop-opacity="0"/>
    </linearGradient>
    <radialGradient id="radial-gradient-5" cx="-265.41" cy="1668.81" fx="-265.41" fy="1668.81" r="10.03" gradientTransform="translate(-370.47 -383.66) rotate(134.5) scale(.84 -.59)" xlink:href="#radial-gradient"/>
    <radialGradient id="radial-gradient-6" cx="-4.85" cy="1298.27" fx="-4.85" fy="1298.27" r="10.03" gradientTransform="translate(-1166.06 -659.42) rotate(119.61) scale(2.62 -1.43)" xlink:href="#radial-gradient"/>
  </defs>
  <g>
    <path class="cls-4" d="m239.59,715.86c10.71,0,19.67,5.48,23.76,11.49v-10.01h16.36v74.42h-11.75c-2.54-.02-4.59-2.07-4.61-4.61v-5.31c-4.18,5.92-13.06,11.49-23.76,11.49-20.37,0-35.86-17.41-35.86-38.65s15.39-38.82,35.86-38.82h0Zm438.08,0c10.71,0,19.67,5.48,23.76,11.49v-47.18h16.36v111.59h-11.75c-2.54-.02-4.6-2.07-4.61-4.61v-5.31c-4.18,5.92-13.06,11.49-23.76,11.49-20.37,0-35.86-17.41-35.86-38.65s15.49-38.82,35.86-38.82h0Zm-57.45-14.71c-6.06,0-10.97-4.91-10.97-10.97s4.91-10.97,10.97-10.97,10.97,4.91,10.97,10.97-4.91,10.97-10.97,10.97h0Zm-60.49,92.09c-22.02,0-38.99-17.15-38.99-38.65s16.97-38.65,38.99-38.65,39,17.15,39,38.65-16.97,38.65-39,38.65h0Zm-145.27-77.38c10.71,0,19.67,5.48,23.76,11.49v-47.18h16.36v111.59h-11.66c-2.54-.02-4.59-2.07-4.61-4.61v-5.31c-4.18,5.92-13.06,11.49-23.76,11.49-20.37,0-35.86-17.41-35.86-38.65s15.41-38.82,35.77-38.82h0Zm-171.91,14.88c-13.23,0-22.2,10.44-22.2,23.76s8.88,23.85,22.2,23.85,22.2-10.44,22.2-23.76-8.97-23.85-22.2-23.85h0Zm438.08,0c-13.23,0-22.2,10.44-22.2,23.76s8.97,23.85,22.2,23.85,22.2-10.44,22.2-23.76-8.97-23.85-22.2-23.85h0Zm-68.59-13.4h16.36v74.42h-11.66c-2.54-.02-4.59-2.07-4.61-4.61l-.09-69.81h0Zm-52.31,60.76c13.06,0,22.28-10.27,22.28-23.5s-9.23-23.5-22.28-23.5-22.46,10.27-22.46,23.5,9.23,23.5,22.46,23.5h0Zm-86.52-60.76h16.36v13.23c2.95-8.34,10.82-13.95,19.67-14.01.08,0,.17,0,.25,0,2.05,0,4.1.21,6.1.61v16.8c-2.62-.86-5.37-1.31-8.13-1.31h-.05c-9.4,0-17.84,7.92-17.84,22.8v36.3h-11.75c-2.54-.02-4.59-2.07-4.61-4.61v-69.81h0Zm-55.71,13.4c-13.23,0-22.2,10.44-22.2,23.76s8.97,23.76,22.2,23.76,22.2-10.45,22.2-23.76-8.96-23.76-22.2-23.76h0Zm-119.18-13.4h16.36v10.1c4.44-7.4,12.97-11.58,22.63-11.58,17.24,0,28.38,12.19,28.38,31.07v44.74h-11.66c-2.54-.02-4.59-2.07-4.61-4.61v-37.43c0-11.75-5.92-18.89-15.49-18.89-10.88,0-19.15,8.44-19.15,24.37v36.56h-11.75c-2.54-.02-4.59-2.07-4.61-4.61l-.09-69.72Z"/>
    <path class="cls-4" d="m639.27,894.32c0-5.32.98-10.49,3.1-15.38,2.01-4.65,4.79-8.83,8.37-12.4,3.58-3.58,7.76-6.34,12.42-8.31,4.84-2.05,9.96-3.02,15.22-3.02s10.37.97,15.22,3.02c4.66,1.97,8.85,4.73,12.42,8.31,3.58,3.58,6.36,7.76,8.37,12.4,2.11,4.88,3.1,10.06,3.1,15.38s-.99,10.36-3.1,15.18c-2.02,4.62-4.8,8.76-8.37,12.33-3.58,3.58-7.76,6.36-12.4,8.37-4.84,2.1-9.96,3.1-15.24,3.1s-10.4-1-15.24-3.1c-4.65-2.01-8.83-4.79-12.4-8.37-3.56-3.56-6.35-7.71-8.37-12.33-2.11-4.82-3.1-9.92-3.1-15.18h0Zm-334.98-16.64c-.21-6.86,1.98-12.95,7.24-17.47,5.6-4.82,12.93-6.34,20.14-6.34s14.55,1.57,20.35,6.22c5.49,4.4,8.21,10.38,8.7,17.35l.18,2.55h-16.1l-.19-2.18c-.22-2.55-1.31-4.52-3.36-6.05-2.48-1.86-5.57-2.44-8.6-2.44s-7.2.33-9.77,2.13c-1.95,1.36-2.56,3.34-2.49,5.66.04,1.5.37,3.04,1.38,4.2,1.11,1.27,2.51,2.19,4.03,2.89,2.02.92,4.18,1.57,6.34,2.05,2.59.58,5.18,1.17,7.76,1.79,2.68.64,5.33,1.39,7.95,2.26,2.68.89,5.22,2.15,7.5,3.83,2.32,1.71,4.18,3.87,5.58,6.38,1.63,2.93,2.26,6.31,2.36,9.63.21,6.97-1.97,13.19-7.4,17.71-5.81,4.84-13.55,6.25-20.92,6.25-4.16,0-8.35-.47-12.34-1.67-3.48-1.04-6.82-2.55-9.75-4.71-2.74-2.03-4.96-4.55-6.56-7.56-1.63-3.07-2.44-6.4-2.55-9.88l-.07-2.46h15.89l.39,1.91c1.51,7.47,8.59,8.91,15.21,8.91,2.96,0,7.07-.31,9.61-2.01,1.85-1.24,2.47-3.02,2.4-5.21-.06-2.01-.6-3.83-2.31-5.01-2.14-1.47-4.64-2.46-7.13-3.15-3.27-.9-6.6-1.63-9.94-2.23-3.72-.67-7.35-1.78-10.77-3.39-3.47-1.64-6.41-4-8.79-7.01-2.88-3.65-3.86-8.38-4-12.94h0Zm95.02-21.09h20.82v15.21h-20.82v37.27c0,2.06.21,6.04,1.99,7.48,1.73,1.4,4.02,1.8,6.19,1.8,3.23,0,6.58-.47,9.76-1.06l2.88-.54v15.41l-2.12.28c-2.1.27-4.21.53-6.32.76-2.03.23-4.08.36-6.13.36-2.88,0-5.76-.31-8.55-1.05-2.74-.72-5.21-2.02-7.3-3.94-2.24-2.07-3.73-4.75-4.72-7.62-1.23-3.57-1.58-7.58-1.58-11.34v-37.82h-13.79v-15.21h13.79v-21.78h15.9v21.78h0Zm84.54,66.73c-2.15,2.25-4.6,4.18-7.37,5.79-5.16,2.99-10.85,4.33-16.8,4.33-3.97,0-7.91-.63-11.57-2.19-3.31-1.41-6.28-3.39-8.75-6.02-2.46-2.61-4.24-5.69-5.42-9.07-1.24-3.57-1.79-7.3-1.79-11.07v-48.48h15.9v46.28c0,4.2.93,8.44,4.16,11.36,3.14,2.83,7.04,3.85,11.19,3.85,2.74,0,5.31-.63,7.7-1.97,2.47-1.38,4.61-3.18,6.42-5.36,1.88-2.27,3.39-4.79,4.52-7.51,1.08-2.6,1.72-5.32,1.81-8.13v-38.52h15.9v75.46h-15.9v-8.74h0Zm90.05-59.77v-42.71h15.9v111.21h-15.9v-6.97c-1.93,1.8-4.09,3.34-6.48,4.62-5.12,2.73-11.12,3.6-16.86,3.6-5.22,0-10.29-.98-15.06-3.11-4.52-2.02-8.55-4.81-11.94-8.41-3.4-3.6-6-7.76-7.86-12.34-1.94-4.78-2.87-9.82-2.87-14.98s.9-10.42,2.86-15.32c1.85-4.61,4.45-8.8,7.87-12.41,3.4-3.6,7.43-6.39,11.94-8.41,4.77-2.13,9.84-3.11,15.06-3.11,5.76,0,11.76.89,16.88,3.67,2.38,1.3,4.54,2.85,6.46,4.66h0Zm0,25.62c-.49-2.59-1.35-5.07-2.65-7.37-1.25-2.21-2.82-4.18-4.76-5.82-1.94-1.64-4.14-2.86-6.54-3.69-2.59-.9-5.28-1.31-8.02-1.31-3.27,0-6.48.56-9.47,1.92-2.69,1.23-5.08,2.9-7.04,5.12-1.95,2.21-3.42,4.73-4.43,7.5-1.06,2.88-1.57,5.88-1.57,8.95s.52,5.92,1.57,8.73c1.02,2.72,2.48,5.2,4.42,7.35,1.98,2.19,4.38,3.85,7.06,5.07,2.99,1.36,6.2,1.92,9.47,1.92,2.81,0,5.6-.42,8.23-1.42,2.41-.92,4.64-2.19,6.6-3.86,1.89-1.6,3.47-3.48,4.7-5.63,1.21-2.09,2.01-4.34,2.43-6.71v-10.74h0Zm31.03-58.84c0-2.9,1.01-5.46,3.06-7.51,2.05-2.05,4.62-3.06,7.51-3.06s5.46,1.01,7.51,3.06c2.05,2.05,3.06,4.62,3.06,7.51s-1.01,5.46-3.06,7.51c-2.05,2.05-4.62,3.06-7.51,3.06s-5.46-1.01-7.51-3.06c-2.05-2.05-3.06-4.62-3.06-7.51h0Zm3.26,26.26h15.9v75.46h-15.9v-75.46h0Zm47.83,37.73c0,3,.52,5.92,1.57,8.73,1.03,2.75,2.52,5.24,4.49,7.42,1.99,2.2,4.38,3.9,7.07,5.14,2.92,1.35,6.05,1.91,9.25,1.91s6.33-.56,9.25-1.91c2.67-1.23,5.04-2.92,6.99-5.12,1.94-2.2,3.41-4.69,4.44-7.44,1.05-2.81,1.57-5.73,1.57-8.73s-.53-5.97-1.57-8.81c-1.02-2.77-2.48-5.29-4.43-7.5-1.95-2.21-4.32-3.89-6.99-5.12-2.92-1.35-6.05-1.91-9.25-1.91s-6.33.56-9.25,1.91c-2.69,1.25-5.08,2.94-7.07,5.14-1.98,2.19-3.46,4.71-4.48,7.48-1.04,2.84-1.57,5.78-1.57,8.81Z"/>
  </g>
  <g class="cls-37">
    <g>
      <path class="cls-16" d="m417.79,636.19c-9.93-2.35-18.23-7.86-29.86-19.77-19.41-19.93-35.18-28.21-62.57-32.93-28.4-4.9-41.03-15.45-48.62-40.67-9.37-31.14-19.16-46.05-40.68-61.94-24.41-18.03-30.67-33.92-24.71-62.74,5.52-26.69,3.41-45.65-7.81-70.05-13.36-29.1-11.72-44.65,7.27-68.49,17.41-21.87,22.88-36.32,25.48-67.38,2.63-31.35,11.36-44.22,37.04-54.63,21.45-8.69,39.79-23.78,49.96-41.07,11.76-20.02,13.47-22.3,20.76-27.74,11.76-8.77,21.27-11.21,39.37-10.07,31.45,1.98,48.31-1.81,69.43-15.55,27.54-17.93,44.24-17.93,71.78,0,21.12,13.75,37.97,17.53,69.43,15.55,29.74-1.86,42.11,5.95,60.24,38.01,8.99,15.89,27.35,31.35,47.46,39.95,28.61,12.25,36.94,23.44,39.05,52.49,2.29,31.46,8.74,49.06,25.83,70.43,19.03,23.81,20.69,39.38,7.3,68.5-11.21,24.39-13.31,43.36-7.8,70.05,5.95,28.81-.3,44.71-24.72,62.74-21.51,15.89-31.3,30.8-40.67,61.94-7.59,25.22-20.22,35.78-48.63,40.67-27.44,4.72-43.22,13.04-62.56,32.99-21.44,22.11-36.82,25.75-66.79,15.85-24.51-8.11-43.39-8.14-67.81-.13-17.1,5.62-26.22,6.59-37.18,3.99Z"/>
      <path class="cls-6" d="m417.79,630.32c-9.93-2.35-18.23-7.86-29.86-19.77-19.41-19.93-35.18-28.21-62.57-32.93-28.4-4.9-41.03-15.45-48.62-40.67-9.37-31.14-19.16-46.05-40.68-61.94-24.41-18.03-30.67-33.92-24.71-62.74,5.52-26.69,3.41-45.65-7.81-70.05-13.36-29.1-11.72-44.65,7.27-68.49,17.41-21.87,22.88-36.32,25.48-67.38,2.63-31.35,11.36-44.22,37.04-54.63,21.45-8.69,39.79-23.78,49.96-41.07,11.76-20.02,13.47-22.3,20.76-27.74,11.76-8.77,21.27-11.21,39.37-10.07,31.45,1.98,48.31-1.81,69.43-15.55,27.54-17.93,44.24-17.93,71.78,0,21.12,13.75,37.97,17.53,69.43,15.55,29.74-1.86,42.11,5.95,60.24,38.01,8.99,15.89,27.35,31.35,47.46,39.95,28.61,12.25,36.94,23.44,39.05,52.49,2.29,31.46,8.74,49.06,25.83,70.43,19.03,23.81,20.69,39.38,7.3,68.5-11.21,24.4-13.31,43.37-7.8,70.05,5.95,28.81-.3,44.71-24.72,62.74-21.51,15.89-31.3,30.8-40.67,61.94-7.59,25.22-20.22,35.78-48.63,40.67-27.44,4.72-43.22,13.04-62.56,32.99-21.44,22.11-36.82,25.75-66.79,15.85-24.51-8.11-43.39-8.14-67.81-.13-17.1,5.62-26.22,6.59-37.18,3.99Z"/>
      <path class="cls-33" d="m623.43,513.42c1.23,3.86-.89,7.99-4.75,9.22-3.36,1.08-7.02-.4-8.69-3.51l-17.67-32.81c-2.84-5.24-.89-11.79,4.35-14.63,5.24-2.84,11.79-.89,14.63,4.35.33.6.59,1.23.8,1.89,0,0,11.33,35.5,11.33,35.5Z"/>
      <path class="cls-44" d="m623.43,513.42c1.23,3.86-.89,7.99-4.75,9.22-3.36,1.08-7.02-.4-8.69-3.51l-17.67-32.81c-2.84-5.24-.89-11.79,4.35-14.63,5.24-2.84,11.79-.89,14.63,4.35.33.6.59,1.23.8,1.89,0,0,11.33,35.5,11.33,35.5Z"/>
      <g class="cls-43">
        <g>
          <path class="cls-5" d="m673.09,375.57l-44.35-125.67-70.7,24.95,44.35,125.66s70.7-24.94,70.7-24.94Z"/>
          <g class="cls-14">
            <path class="cls-47" d="m630.92,328.37c-4.39,15.55-17.73-19.16-41.71-25.93-23.98-6.77-53.49,15.85-49.1.3,7.83-11.42,28.81-20.14,52.79-13.36,23.98,6.76,38.23,27.03,38.01,38.99Z"/>
          </g>
          <g class="cls-24">
            <path class="cls-10" d="m627.9,319.83c-13.18-9.36-1.78,26.04-16.19,46.35-14.43,20.32-51.6,21.23-38.43,30.59,13.26,3.96,35.08-2.41,49.49-22.72,14.42-20.32,12.79-45.05,5.12-54.22h.01Z"/>
          </g>
          <g class="cls-31">
            <path class="cls-7" d="m576.65,274.71c-16.73.52-30.26,2.53-30.2,4.46.06,1.95,13.68,3.09,30.42,2.56,16.73-.52,40.11,13.42,40.05,11.48-.06-1.94-23.54-19.03-40.27-18.5Z"/>
          </g>
          <g class="cls-8">
            <path class="cls-7" d="m619.08,394.91c-13.37,10.09-25.15,17.02-26.33,15.47-1.16-1.56,8.72-10.99,22.07-21.09,13.36-10.09,22.81-35.62,23.98-34.07,1.17,1.56-6.37,29.6-19.73,39.69h.01Z"/>
          </g>
          <g class="cls-24">
            <path class="cls-9" d="m625.25,284.51c-6.12,7.48-9.09,10.87-9.75,10.33-.66-.55,1.24-4.82,7.35-12.29,3.76-9.38,14.95-4.82,15.61-4.27.66.54-5.39-4.44-13.21,6.23Z"/>
          </g>
          <g class="cls-39">
            <path d="m614.33,294.21c.57.43,5.1-4.52,10.1-11.09,5.02-6.55,8.61-12.22,8.04-12.65-.57-.44-5.1,4.51-10.1,11.08-5.02,6.56-8.61,12.22-8.04,12.66Z"/>
          </g>
          <g class="cls-27">
            <path class="cls-6" d="m631.29,289.02c-6.39,7.83-9.27,11.56-8.74,11.99s4.26-2.6,10.65-10.43c9.19-8.61-.34-14.94-1.22-13.66-2.61,2.78,8.48,1.75-.69,12.11Z"/>
          </g>
          <path class="cls-15" d="m628.36,271.75c-2.77,1.99-3.13,6.24-.8,9.5,2.35,3.27,6.48,4.31,9.26,2.32,2.77-1.99,3.13-6.24.8-9.5-2.35-3.26-6.48-4.29-9.26-2.31h0Z"/>
          <path class="cls-19" d="m655.78,346.59c-2.77,1.99-3.13,6.24-.79,9.5,2.34,3.27,6.47,4.31,9.25,2.32,2.77-1.98,3.13-6.23.8-9.5-2.34-3.26-6.48-4.29-9.26-2.31h0Z"/>
          <g class="cls-39">
            <path d="m635.87,356.57c.16-.7,6.82.22,14.86,2.05,8.05,1.83,14.45,3.88,14.28,4.58-.16.7-6.8-.21-14.85-2.04-8.05-1.84-14.45-3.88-14.29-4.59Z"/>
          </g>
          <g class="cls-42">
            <g>
              <g class="cls-27">
                <path class="cls-9" d="m637.74,359c.36-5.72.06-10.4-.65-10.45-.72-.04-1.13,4.36-1.48,10.09-.35,5.73-.5,10.62.22,10.67.71.04,1.58-4.57,1.93-10.3h-.01Z"/>
              </g>
              <g class="cls-27">
                <path class="cls-45" d="m638.12,347.4c.2-1.63.1-2.98-.22-3.01-.32-.05-.54,1.2-.73,2.83-.19,1.64-.29,3.03.03,3.07.32.03.73-1.25.92-2.89Z"/>
              </g>
            </g>
          </g>
          <g class="cls-13">
            <g>
              <g class="cls-27">
                <path class="cls-9" d="m613.14,291.15c3.96,4.16,6.74,7.93,6.22,8.43-.51.5-3.67-2.61-7.63-6.77-3.95-4.16-7.22-7.81-6.69-8.3.52-.5,4.14,2.48,8.1,6.64Z"/>
              </g>
              <g class="cls-27">
                <path class="cls-45" d="m620.91,299.79c1.19,1.12,1.99,2.23,1.77,2.46-.22.23-1.18-.58-2.38-1.71-1.2-1.12-2.18-2.13-1.96-2.37.22-.23,1.37.5,2.57,1.62Z"/>
              </g>
            </g>
          </g>
          <g class="cls-24">
            <path class="cls-9" d="m650.75,357.85c-9.5-1.77-13.96-2.43-14.12-1.6-.15.84,4.05,2.87,13.54,4.64,8.93,4.74,14.53-5.97,14.69-6.82.16-.83-1.25,6.89-14.12,3.78Z"/>
          </g>
          <g class="cls-27">
            <path class="cls-6" d="m652.4,350.25c-9.66-1.81-14.15-2.78-14.01-3.49.13-.7,4.82-.86,14.49.93,15.81.36,17.66,11.49,9.43,12.46-3.61-.25,3.42-8.01-9.91-9.9Z"/>
          </g>
        </g>
      </g>
      <path class="cls-28" d="m595.86,306.13c-.78,1.93-.57,3.85.5,4.28,1.05.43,2.56-.78,3.35-2.71.78-1.94.56-3.85-.5-4.29-1.05-.43-2.56.78-3.35,2.71h0Z"/>
      <path class="cls-29" d="m614.43,358.96c-1.83-1-2.86-2.64-2.31-3.64s2.49-1,4.31,0,2.86,2.64,2.31,3.64c-.55,1-2.49,1-4.31,0Z"/>
      <g class="cls-22">
        <path class="cls-41" d="m590.77,311.74c5.02.22,7.09-2.61,7.49-4.05,2.94-4.78-1.83-8.13-4.05-8.84-2.23-.72-6-1.58-9.58,1.82-3.57,3.39-.13,10.8,6.14,11.08Z"/>
      </g>
      <g class="cls-22">
        <path class="cls-41" d="m606.95,357.81c3.74-3.31,7.12-2.41,8.34-1.55,5.26,1.89,3.67,7.47,2.4,9.43-1.27,1.96-3.66,4.98-8.56,4.58-4.89-.4-6.85-8.33-2.18-12.46Z"/>
      </g>
      <path d="m607.73,368.82c2.81,2.11,7.16,1.07,9.71-2.31,2.55-3.39,2.33-7.85-.48-9.96-2.81-2.11-7.16-1.07-9.71,2.31-2.55,3.39-2.34,7.85.48,9.96Z"/>
      <path d="m590.41,310.69c4.11,1.04,8.13-.8,8.97-4.14.84-3.33-1.81-6.87-5.92-7.91-4.11-1.04-8.13.8-8.97,4.14-.84,3.33,1.81,6.87,5.92,7.91Z"/>
      <path d="m607.34,358.82c2.54-3.39,6.83-4.46,9.58-2.4,2.75,2.07,2.91,6.48.36,9.86-2.55,3.39-6.84,4.46-9.59,2.41-2.75-2.07-2.91-6.49-.36-9.87h.01Z"/>
      <g class="cls-20">
        <g>
          <path class="cls-50" d="m593.91,299.36c-3.34-1.2-6.45-.37-7.65.34,2.32-1.42,4.86-2.11,8.05-.92,1.79.75,3.28,2.06,4.26,3.73.18.3.32.54.4.72l-.4-.72c-.11-.17-.22-.34-.34-.5-.6-.77-1.73-1.72-4.31-2.65h0Z"/>
          <g class="cls-14">
            <path class="cls-46" d="m596.65,309.14c3.36-2.18,2.69-5.31,1.94-6.6.94,1.01,1.03,3.4.31,4.68-.54.85-1.33,1.52-2.25,1.93Z"/>
          </g>
        </g>
      </g>
      <g class="cls-35">
        <g>
          <path class="cls-36" d="m617.77,359.06c-.81-2.19-3.1-3.44-5.38-2.95,1.62.17,3.07,1.1,3.9,2.5,1.06,1.86-.29,5.31-1.1,6.79l1.46.6c1.62-1.93,2.05-4.6,1.1-6.94h.01Z"/>
          <path class="cls-50" d="m617.15,365.46c-1.85,3.04-4.79,4.34-6.17,4.53,2.71-.35,5.1-1.4,6.84-4.32.92-1.71,1.26-3.67.97-5.59-.03-.27-.08-.54-.14-.8.03.23.1.49.14.8l.06.6c.02.98-.27,2.43-1.71,4.78Z"/>
        </g>
      </g>
      <g class="cls-14">
        <path class="cls-34" d="m595.9,301.81c-.69-1.14-2.31-1.61-3.03-1.71l-.7.94c.54.09,1.06.25,1.56.49.66.32,1.45.87,1.78,1.1l.4-.83Z"/>
      </g>
      <g class="cls-14">
        <path class="cls-34" d="m617.18,362.36c.2,1.3-.72,2.65-1.2,3.17l-1.1-.3c.35-.4.64-.85.86-1.33.3-.65.55-1.57.64-1.94,0,0,.8.4.8.4Z"/>
      </g>
      <g class="cls-14">
        <path class="cls-34" d="m591.02,309.21c-.55-.5-1.08-1.02-1.59-1.57h-1.2c.46.61,1.05,1.11,1.73,1.47l1.06.1h0Zm5.32.19c.28-.21.55-.44.79-.69l-.42.15c-.31.3-.65.56-1.02.77.1,0,.38-.05.65-.23Z"/>
      </g>
      <g class="cls-14">
        <path class="cls-34" d="m608.67,359.54c-.12.7-.22,1.78-.25,2.22l-.93.75c-.02-.76.12-1.52.41-2.23l.77-.74Zm4.01-3.49c.35-.02.7,0,1.05.04l-.41.15c-.43-.04-.86-.03-1.28.04.19-.13.41-.21.64-.23Z"/>
      </g>
      <g class="cls-27">
        <path class="cls-12" d="m620.1,377.35c-15.25,5.38,5.44-25.52-2.85-49.02-8.29-23.5-43.78-34.57-28.54-39.95,13.84-.18,33.05,11.94,41.34,35.44,8.3,23.49-.05,46.81-9.93,53.54h0Z"/>
      </g>
      <g class="cls-32">
        <path class="cls-11" d="m620.1,377.35c-15.25,5.38,5.44-25.52-2.85-49.02-8.29-23.5-43.78-34.57-28.54-39.95,13.84-.18,33.05,11.94,41.34,35.44,8.3,23.49-.05,46.81-9.93,53.54h0Z"/>
      </g>
      <path class="cls-26" d="m365.51,313.54c-3.35-5.83-8.98-10-15.54-11.51-6.84-1.58-14.02-.52-20.12,2.97-6.19,3.51-10.83,9.16-12.89,15.72-2.07,6.55-.83,14.48,2.43,20.24l23.86-12.31,22.27-15.11h-.01Z"/>
      <path class="cls-3" d="m365.3,313.19c34.51,57.15,106.79,81.61,169.96,54.62l21.09,49.33c-88.11,37.65-188.82,3.51-236.98-76.21,0,0,45.93-27.74,45.93-27.74Z"/>
      <path class="cls-33" d="m355.2,513.42c-1.23,3.86.89,7.99,4.75,9.22,3.36,1.08,7.02-.4,8.69-3.51l17.66-32.81c2.86-5.23.95-11.79-4.28-14.65s-11.79-.95-14.65,4.28c-.34.63-.63,1.29-.84,1.97,0,0-11.33,35.5-11.33,35.5Z"/>
      <path class="cls-40" d="m355.2,513.42c-1.23,3.86.89,7.99,4.75,9.22,3.36,1.08,7.02-.4,8.69-3.51l17.66-32.81c2.86-5.23.95-11.79-4.28-14.65s-11.79-.95-14.65,4.28c-.34.63-.63,1.29-.84,1.97,0,0-11.33,35.5-11.33,35.5Z"/>
      <path class="cls-30" d="m445.35,204.17c5.74-15.76,23.17-23.89,38.93-18.15,15.76,5.74,23.89,23.17,18.15,38.93h0l-89.13,244.9c-5.73,15.76-23.16,23.89-38.93,18.16-15.76-5.74-23.89-23.16-18.16-38.93l89.13-244.9h.01Z"/>
      <path class="cls-25" d="m382.47,489.68c13.79,1.4,26.76-6.74,31.5-19.76l72.4-198.93c4.17-11.45,1.07-24.29-7.88-32.58l-96.04,251.28h.01Z"/>
      <path class="cls-30" d="m508.44,148.88c0-10.55-8.55-19.11-19.11-19.11s-19.11,8.55-19.11,19.11h0v36.25c0,10.55,8.55,19.11,19.11,19.11s19.11-8.55,19.11-19.11v-36.25Z"/>
      <path class="cls-23" d="m508.44,148.88c0-10.55-8.55-19.11-19.11-19.11s-19.11,8.55-19.11,19.11h0v36.25c0,10.55,8.55,19.11,19.11,19.11s19.11-8.55,19.11-19.11v-36.25Z"/>
      <g class="cls-8">
        <path class="cls-21" d="m527.18,425.47c-7.46.64,4.58-8.6,2.74-30.09-1.24-14.49,3.81-26.76,11.28-27.39,7.46-.64,14.53,10.58,15.77,25.08,6.19,23.21-22.31,31.76-29.78,32.41h-.01Z"/>
      </g>
      <path class="cls-48" d="m475.62,224.66c-5.54-15.63,2.64-32.79,18.28-38.33,15.39-5.45,32.32,2.39,38.11,17.67l89.91,245.37c5.88,15.51-1.93,32.84-17.44,38.72-15.51,5.88-32.84-1.93-38.72-17.44-.08-.2-.15-.41-.22-.61l-89.9-245.37h-.01Z"/>
      <path class="cls-49" d="m465.32,194.44c-11.33,2.87-20.5,11.17-24.49,22.15l-84.5,232.05c-5.16,14.15,0,29.44,11.01,36.3,0,0,97.98-290.5,97.98-290.5Z"/>
      <path class="cls-17" d="m473.7,151.87c4.27,4.28,11.99,3.51,17.24-1.74,5.24-5.24,6.02-12.96,1.74-17.25-4.28-4.27-12-3.5-17.25,1.74-5.24,5.25-6.02,12.96-1.74,17.25h.01Z"/>
      <path class="cls-18" d="m433.64,283.14c12.8,7.39,32.54-2.81,44.07-22.79,11.54-19.99,10.51-42.18-2.29-49.56-12.81-7.4-32.54,2.81-44.07,22.79-11.54,19.99-10.51,42.18,2.29,49.56Z"/>
      <path class="cls-6" d="m488.84,258.13c20.56,0,37.23-16.67,37.23-37.23s-16.67-37.23-37.23-37.23-37.23,16.67-37.23,37.23,16.67,37.23,37.23,37.23Z"/>
      <path class="cls-1" d="m488.84,193.46c-15.15,0-27.44,12.29-27.44,27.44s12.29,27.44,27.44,27.44h0c15.15,0,27.44-12.29,27.44-27.44s-12.29-27.44-27.44-27.44Zm-47.03,27.44c0-25.97,21.06-47.03,47.03-47.03s47.03,21.06,47.03,47.03-21.06,47.03-47.03,47.03-47.03-21.06-47.03-47.03Z"/>
    </g>
  </g>
</svg>