<?xml version="1.0" encoding="UTF-8"?>
<svg id="Layer_1" data-name="Layer 1" xmlns="http://www.w3.org/2000/svg" viewBox="0 0 960 960">
  <defs>
    <style>
      .cls-1 {
        fill: #5865f2;
        stroke-width: 0px;
      }
    </style>
  </defs>
  <g>
    <path id="path4" class="cls-1" d="M499.87,317.29c-17.09,0-30.59,14.69-30.59,32.99s13.79,32.99,30.59,32.99,30.59-14.69,30.59-32.99-13.79-32.99-30.59-32.99ZM390.42,317.29c-17.09,0-30.59,14.69-30.59,32.99s13.79,32.99,30.59,32.99,30.59-14.69,30.59-32.99c.3-18.29-13.49-32.99-30.59-32.99Z"/>
    <path id="path6" class="cls-1" d="M338.89,401.86h-.05c-5.06-2.83-8.01-4.85-8.38-5.08.3.49,3.99,6.31,12.19,13.44-1.14-2.44-2.41-5.25-3.76-8.36ZM338.89,401.86h-.05c-5.06-2.83-8.01-4.85-8.38-5.08.3.49,3.99,6.31,12.19,13.44-1.14-2.44-2.41-5.25-3.76-8.36ZM338.89,401.86h-.05c-5.06-2.83-8.01-4.85-8.38-5.08.3.49,3.99,6.31,12.19,13.44-1.14-2.44-2.41-5.25-3.76-8.36Z"/>
    <path class="cls-1" d="M648.77,67.86c-.88-.05-1.79-.07-2.69-.07H243.78c-.26,0-.53,0-.79.02-8.33.09-16.25,1.86-23.47,4.97-20.61,8.91-35.42,28.76-37.05,52.2-.12,1.42-.16,2.86-.16,4.29v401.81c0,32.98,26.14,60,58.77,61.42,1.04.05,2.09.07,3.16.07h339.6v-.02h63.05c8.31-.09,16.23-1.86,23.44-4.97,20.61-8.91,35.42-28.76,37.05-52.2V129.28c-.3-32.82-26.18-59.75-58.61-61.42ZM612.77,421.73c-.51.56-1.07,1.11-1.62,1.67-12.81,12.86-38.46,31.36-81.29,32.73,0,0-2.65-3.16-6.38-7.68-2-2.39-4.29-5.18-6.69-8.08-.42-.51-.84-1.02-1.25-1.53-1.6-1.97-3.23-3.97-4.83-5.92-.21-.28-.42-.53-.63-.79,39.28-11.1,54.27-35.38,54.27-35.38-12.3,8.1-24,13.79-34.49,17.69-15,6.29-29.39,10.19-43.48,12.91-28.78,5.39-55.18,3.9-77.67-.3-10.68-2.07-20.43-4.6-29.22-7.45-.02,0-.05,0-.07-.02-4.34-1.42-8.43-2.88-12.3-4.43-.84-.33-1.67-.65-2.48-1-6.89-2.69-14.39-5.99-21.89-10.19-.91-.6-1.79-.91-2.69-1.51-.58-.26-.88-.56-1.16-.58,1.35,3.11,2.62,5.92,3.76,8.36,8.36,7.31,21.4,15.97,40.27,21.61-.39.51-.79,1.02-1.21,1.53-1.6,2.02-3.27,4.09-4.9,6.1-.28.35-.58.72-.86,1.07-2.76,3.39-5.41,6.62-7.59,9.26-3.3,3.97-5.52,6.64-5.52,6.64-66.27-2.11-91.46-45.29-91.46-45.29,0-26.79,3.39-52.14,8.26-74.79,7.43-34.61,18.36-62.86,26-80.11,4.2-9.49,7.43-15.65,8.52-17.69.26-.49.39-.74.39-.74.37-.28.74-.56,1.11-.81,18.38-13.44,36.28-20.94,50.72-25.09,19.1-5.55,32.13-5.27,32.13-5.27l2.99,3.6c-10.58,2.99-20.06,6.34-28.44,9.75-32.92,13.39-48.89,28.04-50.07,29.18.77-.42,7.24-3.85,17.64-8.36,14.41-6.34,27.51-10.56,38.51-13.37,13.46-3.46,23.77-4.85,29.55-5.5.93-.16,1.79-.3,2.65-.42.79-.12,1.58-.19,2.46-.19,18.29-2.41,38.97-2.99,60.56-.6,10.98,1.28,22.26,3.3,33.77,6.27,12.91,3.34,26.11,7.85,39.46,13.83,5.66,2.53,11.33,5.32,17.04,8.38,0,0-1.58-1.51-4.83-4.02-7.13-5.48-22.21-15.76-45.91-25.37-7.17-2.92-15.16-5.76-23.93-8.4l4.2-4.78s10.91-.26,27.34,3.92c8.33,2.09,18.08,5.34,28.57,10.31,8.96,4.25,18.45,9.77,28.04,16.95,0,0,2.44,4.39,6.15,12.35,1.14,2.44,2.39,5.22,3.74,8.33,6.62,15.18,15.32,37.93,22.17,65.53,5.9,23.72,10.4,51.02,11.05,80.13.05,2.32.07,4.64.07,6.99-.07,0-2.74,4.46-8.54,10.58Z"/>
  </g>
  <g>
    <path class="cls-1" d="M212.39,733.9c-14.86-6.8-30.65-11.75-47.12-14.52-2.07,3.57-4.38,8.41-5.99,12.21-17.52-2.53-34.92-2.53-52.21,0-1.61-3.8-4.03-8.64-5.99-12.21-16.59,2.77-32.38,7.72-47.14,14.52-29.84,44.01-37.91,86.99-33.87,129.39,19.82,14.4,38.94,23.16,57.74,28.92,4.61-6.22,8.76-12.91,12.33-19.93-6.8-2.53-13.25-5.65-19.47-9.33,1.61-1.15,3.23-2.42,4.72-3.69,37.56,17.17,78.25,17.17,115.35,0,1.61,1.27,3.11,2.53,4.72,3.69-6.22,3.69-12.67,6.8-19.47,9.33,3.57,7.03,7.72,13.71,12.33,19.93,18.78-5.76,38.02-14.52,57.74-28.92,4.95-49.08-7.85-91.71-33.66-129.39ZM95.32,837.14c-11.29,0-20.51-10.25-20.51-22.81s8.99-22.81,20.51-22.81,20.74,10.26,20.51,22.81c0,12.56-9.1,22.81-20.51,22.81ZM171.03,837.14c-11.29,0-20.52-10.25-20.52-22.81s9-22.81,20.52-22.81,20.74,10.26,20.51,22.81c0,12.56-8.99,22.81-20.51,22.81Z"/>
    <path class="cls-1" d="M325.89,755.56h48.98c11.75,0,21.78,1.84,29.96,5.53,8.18,3.69,14.29,8.76,18.32,15.32,4.03,6.57,6.11,14.06,6.11,22.58s-2.07,15.79-6.34,22.58c-4.26,6.68-10.72,12.1-19.36,16.02-8.64,3.92-19.36,5.88-32.15,5.88h-45.52v-87.91ZM370.84,821.12c7.95,0,14.06-1.96,18.32-5.99,4.26-3.92,6.45-9.45,6.45-16.25,0-6.34-1.96-11.41-5.76-15.21-3.8-3.8-9.56-5.76-17.28-5.76h-15.32v43.21h13.6Z"/>
    <path class="cls-1" d="M505.54,843.36c-6.8-1.73-12.9-4.26-18.32-7.72v-20.85c4.15,3.23,9.56,5.76,16.48,7.84,6.91,2.07,13.6,3.11,20.05,3.11,3,0,5.3-.35,6.8-1.15,1.5-.81,2.3-1.73,2.3-2.88,0-1.27-.46-2.3-1.27-3.11-.81-.81-2.42-1.5-4.84-2.19l-15.09-3.34c-8.64-1.96-14.75-4.84-18.44-8.3-3.69-3.46-5.41-8.18-5.41-13.94,0-4.84,1.61-9.1,4.72-12.67,3.23-3.57,7.72-6.34,13.6-8.3,5.88-1.96,12.67-3,20.62-3,7.03,0,13.48.69,19.36,2.3,5.88,1.5,10.72,3.46,14.52,5.76v19.7c-3.92-2.3-8.53-4.15-13.6-5.53-5.19-1.38-10.48-2.07-15.9-2.07-7.84,0-11.75,1.38-11.75,4.03,0,1.27.58,2.19,1.84,2.88,1.27.69,3.46,1.27,6.68,1.96l12.56,2.3c8.18,1.38,14.29,3.92,18.32,7.49,4.03,3.57,5.99,8.76,5.99,15.79,0,7.6-3.34,13.71-10.02,18.09-6.68,4.49-16.13,6.68-28.34,6.68-7.14-.23-14.06-1.15-20.85-2.88Z"/>
    <path class="cls-1" d="M595.89,840.72c-7.14-3.57-12.67-8.3-16.25-14.29-3.69-5.99-5.42-12.79-5.42-20.39s1.84-14.29,5.65-20.16c3.8-5.99,9.33-10.6,16.59-14.06,7.26-3.34,16.02-5.07,26.15-5.07,12.56,0,22.93,2.65,31.22,7.95v22.93c-2.88-1.96-6.34-3.69-10.25-4.84-3.92-1.27-8.07-1.84-12.44-1.84-7.84,0-13.83,1.38-18.32,4.26-4.38,2.88-6.57,6.57-6.57,11.18s2.07,8.18,6.45,11.06c4.26,2.88,10.48,4.38,18.55,4.38,4.15,0,8.3-.58,12.33-1.84,4.03-1.27,7.6-2.65,10.48-4.49v22.24c-9.22,5.53-19.93,8.3-32.03,8.3-10.25,0-18.9-1.84-26.15-5.3Z"/>
    <path class="cls-1" d="M686.69,840.72c-7.26-3.57-12.79-8.3-16.59-14.4-3.8-6.11-5.76-12.9-5.76-20.51s1.96-14.29,5.76-20.16c3.8-5.88,9.33-10.49,16.48-13.83,7.14-3.34,15.78-5.07,25.7-5.07s18.55,1.61,25.69,5.07c7.14,3.34,12.67,7.95,16.48,13.83,3.8,5.88,5.65,12.56,5.65,20.16s-1.84,14.4-5.65,20.51c-3.8,6.11-9.22,10.95-16.48,14.4-7.26,3.46-15.79,5.3-25.69,5.3s-18.33-1.84-25.59-5.3ZM724.84,818.48c3-3,4.61-7.14,4.61-12.1s-1.5-8.99-4.61-11.98c-3.11-3-7.26-4.49-12.44-4.49s-9.57,1.5-12.69,4.49c-3,3-4.61,6.91-4.61,11.98s1.5,9.1,4.61,12.1c3.11,3.11,7.27,4.61,12.69,4.61,5.19-.12,9.45-1.61,12.44-4.61Z"/>
    <path class="cls-1" d="M837.18,771.35v27.08c-3.23-2.07-7.37-3.11-12.44-3.11-6.68,0-11.87,2.07-15.44,6.11-3.58,4.03-5.42,10.37-5.42,18.9v23.04h-30.76v-73.28h30.19v23.39c1.61-8.53,4.38-14.86,8.07-18.9,3.69-4.03,8.53-6.22,14.4-6.22,4.38,0,8.18,1.04,11.41,3Z"/>
    <path class="cls-1" d="M940.9,753.03v90.45h-30.76v-16.48c-2.65,6.22-6.57,10.95-11.87,14.17-5.31,3.23-11.88,4.84-19.71,4.84-6.91,0-13.02-1.73-18.21-5.07-5.18-3.34-9.21-8.07-11.98-13.94-2.77-5.99-4.15-12.67-4.15-20.05-.12-7.72,1.38-14.63,4.49-20.74,3-6.11,7.37-10.83,12.91-14.29,5.53-3.46,11.86-5.19,19.01-5.19,14.64,0,24.44,6.34,29.51,19.13v-32.84h30.76ZM905.53,817.9c3.11-3,4.72-7.03,4.72-11.87s-1.49-8.53-4.61-11.41c-3.11-2.88-7.26-4.38-12.45-4.38s-9.34,1.5-12.44,4.49c-3.11,3-4.61,6.8-4.61,11.64s1.49,8.64,4.61,11.64c3.11,3,7.14,4.49,12.33,4.49s9.34-1.5,12.46-4.61Z"/>
    <path class="cls-1" d="M457.61,774.46c8.84,0,16.02-6.45,16.02-14.4s-7.18-14.4-16.02-14.4-16.02,6.45-16.02,14.4,7.17,14.4,16.02,14.4Z"/>
    <path class="cls-1" d="M473.63,784.36c-9.79,4.26-22.01,4.38-32.03,0v59.11h32.03v-59.11Z"/>
  </g>
</svg>