<?xml version="1.0" encoding="UTF-8"?>
<svg id="Layer_1" data-name="Layer 1" xmlns="http://www.w3.org/2000/svg" xmlns:xlink="http://www.w3.org/1999/xlink" viewBox="0 0 960 960">
  <defs>
    <style>
      .cls-1 {
        fill: url(#linear-gradient);
      }

      .cls-1, .cls-2, .cls-3, .cls-4, .cls-5, .cls-6, .cls-7 {
        stroke-width: 0px;
      }

      .cls-2 {
        fill: #7b83eb;
      }

      .cls-3 {
        opacity: .2;
      }

      .cls-3, .cls-7 {
        isolation: isolate;
      }

      .cls-4 {
        fill: #fff;
      }

      .cls-5 {
        fill: #373435;
      }

      .cls-6 {
        fill: #5059c9;
      }

      .cls-7 {
        opacity: .1;
      }
    </style>
    <linearGradient id="linear-gradient" x1="156.63" y1="-962.25" x2="419.24" y2="-507.43" gradientTransform="translate(0 1115.33)" gradientUnits="userSpaceOnUse">
      <stop offset="0" stop-color="#5a62c3"/>
      <stop offset=".5" stop-color="#4d55bd"/>
      <stop offset="1" stop-color="#3940ab"/>
    </linearGradient>
  </defs>
  <path class="cls-5" d="M316.5,828.94h-36.93v114.35h-14.98v-114.35h-36.84v-13.55h88.75v13.55h0ZM390.18,901.28h-64.48c.24,10.17,2.98,18.02,8.22,23.57,5.24,5.51,12.42,8.28,21.58,8.28,10.29,0,19.73-3.38,28.38-10.17v13.73c-8.04,5.84-18.66,8.74-31.85,8.74s-23.05-4.14-30.42-12.42c-7.4-8.31-11.08-19.97-11.08-35.01,0-14.22,4.05-25.79,12.09-34.74,8.07-8.95,18.09-13.43,30.02-13.43s21.19,3.87,27.74,11.6c6.55,7.7,9.8,18.45,9.8,32.18v7.67h0ZM375.19,888.89c-.06-8.43-2.1-15.01-6.09-19.73-4.02-4.69-9.59-7.03-16.75-7.03s-12.76,2.47-17.57,7.4c-4.81,4.93-7.8,11.38-8.92,19.36h49.32ZM477.71,943.3h-14.64v-14.28h-.33c-6.36,10.96-15.74,16.41-28.1,16.41-9.1,0-16.23-2.4-21.37-7.22-5.15-4.81-7.7-11.2-7.7-19.18,0-17.05,10.05-27,30.14-29.77l27.37-3.84c0-15.53-6.27-23.29-18.81-23.29-10.99,0-20.92,3.74-29.78,11.23v-14.98c8.98-5.72,19.3-8.56,31.03-8.56,21.46,0,32.21,11.36,32.21,34.07v59.4ZM463.06,897.08l-22.01,3.04c-6.79.94-11.9,2.62-15.34,5.05-3.44,2.41-5.18,6.67-5.18,12.79,0,4.44,1.58,8.1,4.78,10.93,3.17,2.83,7.4,4.23,12.7,4.23,7.24,0,13.24-2.56,17.96-7.61,4.75-5.08,7.1-11.54,7.1-19.33v-9.1h0ZM634.96,943.3h-14.61v-52.46c0-10.11-1.58-17.41-4.69-21.92-3.14-4.54-8.37-6.79-15.74-6.79-6.24,0-11.57,2.86-15.92,8.56-4.39,5.72-6.58,12.54-6.58,20.52v52.09h-14.61v-54.22c0-17.96-6.94-26.94-20.79-26.94-6.42,0-11.69,2.68-15.86,8.07-4.17,5.39-6.24,12.39-6.24,21.01v52.09h-14.64v-91.34h14.64v14.46h.37c6.45-11.08,15.92-16.59,28.34-16.59,6.24,0,11.69,1.73,16.32,5.21,4.66,3.47,7.82,8.04,9.56,13.7,6.76-12.61,16.87-18.91,30.32-18.91,20.09,0,30.14,12.39,30.14,37.17v56.3h0ZM657.09,940.01v-15.71c7.95,5.88,16.75,8.83,26.3,8.83,12.85,0,19.27-4.29,19.27-12.85,0-2.44-.55-4.51-1.64-6.18-1.13-1.7-2.59-3.19-4.47-4.51-1.86-1.31-4.08-2.5-6.61-3.53-2.52-1.04-5.24-2.13-8.16-3.26-4.05-1.61-7.58-3.23-10.66-4.87-3.04-1.61-5.6-3.47-7.67-5.51-2.04-2.07-3.59-4.38-4.63-7-1.03-2.62-1.55-5.69-1.55-9.2,0-4.29.97-8.07,2.92-11.38,1.98-3.29,4.6-6.06,7.86-8.28,3.29-2.22,7-3.93,11.2-5.05,4.17-1.12,8.53-1.67,12.97-1.67,7.92,0,14.98,1.37,21.22,4.08v14.83c-6.7-4.41-14.43-6.61-23.17-6.61-2.74,0-5.21.3-7.43.94-2.19.61-4.08,1.49-5.66,2.62-1.55,1.12-2.77,2.49-3.65,4.05-.85,1.58-1.28,3.32-1.28,5.24,0,2.37.43,4.35,1.28,5.97.88,1.61,2.13,3.04,3.8,4.29,1.64,1.25,3.68,2.38,6.06,3.38,2.38,1.01,5.08,2.1,8.13,3.29,4.02,1.55,7.67,3.14,10.87,4.78,3.2,1.64,5.94,3.47,8.22,5.54,2.25,2.04,3.99,4.41,5.2,7.1,1.22,2.68,1.83,5.84,1.83,9.53,0,4.53-1,8.46-2.98,11.78-2.01,3.32-4.66,6.09-7.98,8.28-3.35,2.22-7.18,3.83-11.51,4.93-4.35,1.07-8.89,1.58-13.67,1.58-9.38,0-17.54-1.8-24.42-5.42h0Z"/>
  <g>
    <path class="cls-6" d="M635.35,289.04h203.17c19.19,0,34.75,15.56,34.75,34.75h0v185.06c0,70.54-57.19,127.73-127.73,127.73h-.6c-70.54,0-127.74-57.17-127.75-127.71v-201.67c0-10.03,8.13-18.16,18.16-18.16h0Z"/>
    <circle class="cls-6" cx="772.67" cy="170.14" r="82.31"/>
    <circle class="cls-2" cx="516.58" cy="133.56" r="118.9"/>
    <path class="cls-2" d="M675.12,289.04h-335.36c-18.97.47-33.97,16.21-33.53,35.18v211.07c-2.65,113.82,87.4,208.27,201.21,211.05,113.81-2.79,203.86-97.24,201.21-211.05v-211.07c.44-18.97-14.56-34.71-33.53-35.18Z"/>
    <path class="cls-7" d="M525.73,289.04v295.78c-.09,13.56-8.31,25.75-20.85,30.91-3.99,1.69-8.29,2.56-12.62,2.56h-169.93c-2.38-6.04-4.57-12.07-6.4-18.29-6.4-20.99-9.67-42.81-9.69-64.75v-211.09c-.44-18.94,14.54-34.65,33.47-35.12h186.03Z"/>
    <path class="cls-3" d="M507.44,289.04v314.07c0,4.34-.87,8.63-2.56,12.62-5.16,12.54-17.35,20.76-30.91,20.85h-143.04c-3.11-6.04-6.04-12.07-8.6-18.29-2.56-6.22-4.57-12.07-6.4-18.29-6.4-20.99-9.67-42.81-9.69-64.75v-211.09c-.44-18.94,14.54-34.65,33.47-35.12h167.74Z"/>
    <path class="cls-3" d="M507.44,289.04v277.49c-.14,18.43-15.04,33.33-33.47,33.47h-158.04c-6.4-20.99-9.67-42.81-9.69-64.75v-211.09c-.44-18.94,14.54-34.65,33.47-35.12h167.74Z"/>
    <path class="cls-3" d="M489.15,289.04v277.49c-.14,18.43-15.04,33.33-33.47,33.47h-139.75c-6.4-20.99-9.67-42.81-9.69-64.75v-211.09c-.44-18.94,14.54-34.65,33.47-35.12h149.44Z"/>
    <path class="cls-7" d="M525.73,194.47v57.62c-3.11.18-6.04.37-9.15.37s-6.04-.18-9.15-.37c-6.17-.41-12.3-1.39-18.29-2.93-37.04-8.77-67.64-34.75-82.31-69.87-2.52-5.9-4.48-12.02-5.85-18.29h91.28c18.46.07,33.4,15.02,33.47,33.47Z"/>
    <path class="cls-3" d="M507.44,212.76v39.33c-6.17-.41-12.3-1.39-18.29-2.93-37.04-8.77-67.64-34.75-82.31-69.87h67.13c18.46.07,33.4,15.02,33.47,33.47Z"/>
    <path class="cls-3" d="M507.44,212.76v39.33c-6.17-.41-12.3-1.39-18.29-2.93-37.04-8.77-67.64-34.75-82.31-69.87h67.13c18.46.07,33.4,15.02,33.47,33.47Z"/>
    <path class="cls-3" d="M489.15,212.76v36.4c-37.04-8.77-67.64-34.75-82.31-69.87h48.84c18.46.07,33.4,15.02,33.47,33.47Z"/>
    <path class="cls-1" d="M120.25,179.29h335.36c18.52,0,33.53,15.01,33.53,33.53v335.36c0,18.52-15.01,33.53-33.53,33.53H120.25c-18.52,0-33.53-15.01-33.53-33.53V212.82c0-18.52,15.01-33.53,33.53-33.53Z"/>
    <path class="cls-4" d="M376.18,306.93h-67.04v182.55h-42.71v-182.55h-66.73v-35.41h176.48v35.41Z"/>
  </g>
</svg>